<?xml version="1.0" encoding="UTF-8"?>
<svg id="Layer_1" data-name="Layer 1" xmlns="http://www.w3.org/2000/svg" viewBox="0 0 384 384">
  <defs>
    <style>
      .cls-1 {
        fill: none;
      }
    </style>
  </defs>
  <path class="cls-1" d="m384,384H0V0h384v384Zm-73.46-152.19c0-71.5-58.07-128.86-130.37-128.78-70.56.09-127.72,58.12-127.81,129.76-.08,70.48,57.92,128.13,128.97,128.19,71.41.06,129.2-57.71,129.2-129.17Zm-63.03-124.55c1.66-12.14,3.27-23.6,4.77-35.08.7-5.33-.2-6.33-5.52-7.03-8.52-1.12-17.04-2.28-25.56-3.42-19.88-2.66-39.75-5.35-59.63-7.95-4.39-.57-5.32.23-5.94,4.52-.96,6.65-1.89,13.31-2.79,19.98-.7,5.24-1.33,10.49-2.03,16,33.92-6.9,65.88-2.68,96.7,12.98Zm-43.03-59.88c3.89.52,7,.72,9.99,1.39,2.61.58,4.33-.09,6.23-1.96,6.42-6.31,14.16-10.52,22.73-13.19,15.72-4.88,31.23-3.67,46.61,1.63,4.15,1.43,7.56.09,8.67-3.24,1.17-3.5-.51-6.55-4.7-8.01-21.46-7.45-42.75-7.76-63.67,1.95-10.21,4.74-18.86,11.48-25.87,21.43Zm100.32,6.99c.03-4.15-1.89-6.7-4.66-7.17-3.05-.52-5.61.53-6.64,3.5-1.87,5.39-3.58,10.86-4.98,16.39-.76,2.99.81,5.4,3.7,6.54,2.92,1.16,5.93.4,7.04-2.39,2.33-5.86,3.98-11.99,5.54-16.87Zm31.44-31.03c-.04-6.09-5.1-8.72-9.47-6.01-4.32,2.68-8.53,5.54-12.7,8.46-3.03,2.12-3.69,5.72-1.8,8.45,1.92,2.77,5.33,3.4,8.56,1.35,4.19-2.66,8.38-5.35,12.34-8.32,1.54-1.16,2.46-3.13,3.06-3.93Zm-16.58,21.68c-1.68,1.57-3.81,2.82-4.8,4.66-1.25,2.33-.46,4.89,1.71,6.68,3.93,3.24,7.86,6.47,11.88,9.6,3.04,2.37,6.46,2.11,8.65-.44,2.29-2.66,1.89-6.18-1.22-8.82-3.69-3.14-7.45-6.19-11.29-9.14-1.23-.95-2.79-1.46-4.93-2.54Z"/>
  <path d="m310.54,231.81c0,71.45-57.79,129.23-129.2,129.17-71.05-.06-129.06-57.71-128.97-128.19.09-71.64,57.25-129.67,127.81-129.76,72.3-.09,130.37,57.28,130.37,128.78Z"/>
  <path d="m247.51,107.26c-30.82-15.66-62.78-19.87-96.7-12.98.7-5.52,1.32-10.76,2.03-16,.89-6.66,1.83-13.32,2.79-19.98.62-4.28,1.55-5.09,5.94-4.52,19.88,2.6,39.76,5.29,59.63,7.95,8.52,1.14,17.03,2.3,25.56,3.42,5.32.7,6.22,1.7,5.52,7.03-1.51,11.48-3.12,22.94-4.77,35.08Z"/>
  <path d="m204.49,47.38c7.01-9.94,15.66-16.69,25.87-21.43,20.91-9.71,42.21-9.4,63.67-1.95,4.2,1.46,5.87,4.5,4.7,8.01-1.11,3.33-4.52,4.67-8.67,3.24-15.38-5.3-30.89-6.51-46.61-1.63-8.57,2.66-16.31,6.88-22.73,13.19-1.9,1.87-3.62,2.54-6.23,1.96-3-.67-6.1-.87-9.99-1.39Z"/>
  <path d="m304.81,54.37c-1.56,4.89-3.21,11.02-5.54,16.87-1.11,2.8-4.12,3.55-7.04,2.39-2.88-1.14-4.46-3.55-3.7-6.54,1.4-5.53,3.11-11,4.98-16.39,1.03-2.97,3.59-4.02,6.64-3.5,2.77.47,4.69,3.02,4.66,7.17Z"/>
  <path d="m336.25,23.34c-.6.8-1.52,2.78-3.06,3.93-3.96,2.98-8.15,5.66-12.34,8.32-3.23,2.05-6.64,1.42-8.56-1.35-1.89-2.73-1.23-6.33,1.8-8.45,4.16-2.92,8.38-5.79,12.7-8.46,4.37-2.71,9.43-.07,9.47,6.01Z"/>
  <path d="m319.67,45.02c2.14,1.08,3.71,1.6,4.93,2.54,3.84,2.95,7.6,6.01,11.29,9.14,3.1,2.64,3.51,6.16,1.22,8.82-2.19,2.55-5.61,2.81-8.65.44-4.02-3.13-7.95-6.36-11.88-9.6-2.17-1.79-2.96-4.35-1.71-6.68.99-1.85,3.11-3.09,4.8-4.66Z"/>
</svg>